<svg id="Layer_1" data-name="Layer 1" xmlns="http://www.w3.org/2000/svg" viewBox="0 0 330.97 76.53"><defs><style>.cls-1{fill:#233574;}.cls-2{fill:#e30613;}</style></defs><title>atilim-universitesi-logo-tr</title><path class="cls-1" d="M3.07,74.8c0,.46.08.75.22.86a1.73,1.73,0,0,0,1,.18h.15v.69H0v-.69H.12a1.69,1.69,0,0,0,1-.18c.14-.11.21-.4.21-.86V69.56a.43.43,0,0,0-.14-.36,1,1,0,0,0-.54-.09H0v-.57c.28,0,.66-.1,1.11-.2s1.11-.27,1.95-.49Z"/><path class="cls-1" d="M23.14,76.53l-.3-.4a6.33,6.33,0,0,0,2-1.38,3.79,3.79,0,0,0,1-1.79,5.58,5.58,0,0,1-.63.2,2.09,2.09,0,0,1-2.08-.61,2.64,2.64,0,0,1-.6-1.8,2.84,2.84,0,0,1,.79-2.06,2.67,2.67,0,0,1,2-.83,2.37,2.37,0,0,1,1.95.94A3.88,3.88,0,0,1,28,71.28a5.06,5.06,0,0,1-.41,2A5.51,5.51,0,0,1,26.41,75a5.26,5.26,0,0,1-1.49,1.07A5.37,5.37,0,0,1,23.14,76.53Zm2.11-4.2a.8.8,0,0,0,.74-.5,3.13,3.13,0,0,0,.26-1.41,2.54,2.54,0,0,0-.27-1.3.78.78,0,0,0-.73-.45.77.77,0,0,0-.71.45,2.91,2.91,0,0,0-.25,1.37,3.21,3.21,0,0,0,.25,1.37A.77.77,0,0,0,25.25,72.33Z"/><path class="cls-1" d="M45.64,76.53l-.3-.4a6.51,6.51,0,0,0,2-1.38,3.88,3.88,0,0,0,1-1.79,5.58,5.58,0,0,1-.63.2,2.11,2.11,0,0,1-2.09-.61,2.64,2.64,0,0,1-.6-1.8,2.88,2.88,0,0,1,.79-2.06,2.69,2.69,0,0,1,2-.83,2.37,2.37,0,0,1,2,.94,3.88,3.88,0,0,1,.75,2.48,5.06,5.06,0,0,1-.41,2,5.72,5.72,0,0,1-2.66,2.79A5.43,5.43,0,0,1,45.64,76.53Zm2.11-4.2a.8.8,0,0,0,.74-.5,3.13,3.13,0,0,0,.26-1.41,2.66,2.66,0,0,0-.26-1.3.83.83,0,0,0-.74-.46.79.79,0,0,0-.71.46,4,4,0,0,0,0,2.74A.78.78,0,0,0,47.75,72.33Z"/><path class="cls-1" d="M73,67.86l.3.4a6.61,6.61,0,0,0-2,1.38,3.8,3.8,0,0,0-1,1.8,3.25,3.25,0,0,1,.64-.22,1.93,1.93,0,0,1,.5-.07,2,2,0,0,1,1.57.68,2.65,2.65,0,0,1,.6,1.81,2.86,2.86,0,0,1-.8,2.07,2.64,2.64,0,0,1-2,.82,2.31,2.31,0,0,1-2-1,3.88,3.88,0,0,1-.75-2.48,5,5,0,0,1,.41-2,5.45,5.45,0,0,1,1.18-1.72,5.18,5.18,0,0,1,1.48-1.06A5.55,5.55,0,0,1,73,67.86Zm-2.16,7.86a.82.82,0,0,0,.74-.51,3.18,3.18,0,0,0,.26-1.42,2.63,2.63,0,0,0-.26-1.28.83.83,0,0,0-.74-.46.78.78,0,0,0-.72.47,3.28,3.28,0,0,0-.23,1.4,2.94,2.94,0,0,0,.24,1.34A.77.77,0,0,0,70.84,75.72Z"/><path class="cls-2" d="M31.51,19a12.76,12.76,0,1,0,0,25.51Z"/><path class="cls-1" d="M48.13,1.18V5A29.69,29.69,0,0,0,31.49,0V2.84a26,26,0,0,1,19.58,8.65V4.1l19.65,0,0,55.36H51.09V51.9a25.86,25.86,0,0,1-19.55,8.72v2.93a29.4,29.4,0,0,0,16.64-5.07v3.91l25.51,0,0-61.21Z"/><path class="cls-1" d="M39,21.33A13.13,13.13,0,0,0,31.51,19v2.31Z"/><path class="cls-1" d="M31.51,26H43.1a12.6,12.6,0,0,0-1.55-2.31h-10Z"/><path class="cls-1" d="M31.52,30.58h13A11.66,11.66,0,0,0,44,28.26H31.51Z"/><path class="cls-1" d="M31.52,35.2H44.06a12.72,12.72,0,0,0,.43-2.31h-13Z"/><path class="cls-1" d="M31.52,39.82H41.63a12.81,12.81,0,0,0,1.52-2.31H31.52Z"/><path class="cls-1" d="M31.52,42.13v2.4A11.84,11.84,0,0,0,33,44.44a13.06,13.06,0,0,0,6.11-2.31Z"/><path class="cls-1" d="M31.51,19,2.81,19c-.35.76-.68,1.53-1,2.31H24A13.12,13.12,0,0,1,31.51,19Z"/><path class="cls-1" d="M21.47,23.65H1.09C.88,24.42.69,25.19.54,26l19.39,0A12.73,12.73,0,0,1,21.47,23.65Z"/><path class="cls-1" d="M19,28.27l-18.82,0Q0,29.43,0,30.6H18.55A11.9,11.9,0,0,1,19,28.27Z"/><path class="cls-1" d="M18.54,32.9H0c0,.78.08,1.55.17,2.31H19A12.74,12.74,0,0,1,18.54,32.9Z"/><path class="cls-1" d="M19.89,37.52H.53c.16.79.34,1.55.55,2.31H21.41A13.17,13.17,0,0,1,19.89,37.52Z"/><path class="cls-1" d="M15.76,5.16a32.05,32.05,0,0,0-3.53,2.32l19.27,0V5.15Z"/><path class="cls-1" d="M9.5,9.79A29.92,29.92,0,0,0,7.3,12.1H31.5V9.78Z"/><path class="cls-1" d="M5.5,14.42c-.53.74-1,1.51-1.48,2.31l27.48,0V14.4Z"/><path class="cls-1" d="M4,46.78c.46.79.94,1.56,1.47,2.31l26.07,0V46.76Z"/><path class="cls-1" d="M7.25,51.4a31.68,31.68,0,0,0,2.19,2.3H31.53V51.38Z"/><path class="cls-1" d="M12.15,56a31.51,31.51,0,0,0,3.5,2.3H31.54V56Z"/><path class="cls-1" d="M31.49,1h-.2A32.36,32.36,0,0,0,20.86,2.85H31.6V1Z"/><path class="cls-1" d="M1.82,42.15c.28.75.58,1.48.91,2.4l28.8,0a13.14,13.14,0,0,1-7.59-2.39Z"/><path class="cls-1" d="M31.54,60.62H20.65A32.43,32.43,0,0,0,31.4,62.52h.24V60.62Z"/><path class="cls-1" d="M86.44,25.4V23.89A3.28,3.28,0,0,0,88.28,23a9.75,9.75,0,0,0,1.52-3.07l5.91-16.7L95.78,3a2.94,2.94,0,0,0,.25-1,1.13,1.13,0,0,0-.09-.45,2.53,2.53,0,0,0-.26-.44H99.3l6.88,19.07A8.52,8.52,0,0,0,107.57,23a2.75,2.75,0,0,0,1.75.94V25.4H100V23.89a4.49,4.49,0,0,0,1.94-.54,1.33,1.33,0,0,0,.53-1.18,4.9,4.9,0,0,0-.09-.9,5.93,5.93,0,0,0-.26-.94l-1.64-4.76H92.94l-1.19,4.08a7.93,7.93,0,0,0-.21.94,5.61,5.61,0,0,0-.07.86A2.08,2.08,0,0,0,92,23a4.26,4.26,0,0,0,2,.86V25.4Zm7.15-11.74h6.33L96.81,4.55Z"/><path class="cls-1" d="M115.58,25.4V23.89a3.62,3.62,0,0,0,2.63-.82,4.52,4.52,0,0,0,.71-3V2.7H116.7a6.16,6.16,0,0,0-3.66.83,7,7,0,0,0-2,3.08h-1.5l.68-5.45h21.35l.88,5.45-1.53,0a8.68,8.68,0,0,0-2.43-3.06,5.53,5.53,0,0,0-3.19-.82h-2.42V20.1a4.62,4.62,0,0,0,.67,2.95,3.72,3.72,0,0,0,2.54.84V25.4Z"/><path class="cls-1" d="M134.41,25.4V23.89a4.46,4.46,0,0,0,2.68-.93,4.29,4.29,0,0,0,.68-2.86V6.43a4.24,4.24,0,0,0-.68-2.84,4.54,4.54,0,0,0-2.68-.92V1.16H145V2.67a4.57,4.57,0,0,0-2.69.92,4.32,4.32,0,0,0-.66,2.84V20.1a4.3,4.3,0,0,0,.67,2.86,4.52,4.52,0,0,0,2.68.93V25.4Z"/><path class="cls-1" d="M148.1,25.4V23.89a3.73,3.73,0,0,0,2.6-.8,3.47,3.47,0,0,0,.77-2.52v-15a2.88,2.88,0,0,0-.77-2.26,4,4,0,0,0-2.6-.71V1.16h10.74V2.57a3.81,3.81,0,0,0-2.6.76,2.88,2.88,0,0,0-.86,2.28V20c0,1.59.32,2.65,1,3.18s1.93.79,3.88.79a9.74,9.74,0,0,0,5.11-1.21A7.87,7.87,0,0,0,168.44,19l1.53.42L168.5,25.4Z"/><path class="cls-1" d="M171.94,25.4V23.89a4.46,4.46,0,0,0,2.68-.93,4.29,4.29,0,0,0,.68-2.86V6.43a4.24,4.24,0,0,0-.68-2.84,4.54,4.54,0,0,0-2.68-.92V1.16h10.6V2.67a4.51,4.51,0,0,0-2.68.92,4.25,4.25,0,0,0-.67,2.84V20.1a4.3,4.3,0,0,0,.67,2.86,4.49,4.49,0,0,0,2.68.93V25.4Z"/><path class="cls-1" d="M184.56,25.4l0-1.51a3,3,0,0,0,2.33-1.3,10.68,10.68,0,0,0,1.31-4L190.3,6.46a1.72,1.72,0,0,0,0-.18c.06-.51.1-.86.1-1.07a2.69,2.69,0,0,0-.63-1.93A2.59,2.59,0,0,0,188,2.57V1.16h6.4a10.58,10.58,0,0,0,.29,2.43,29.1,29.1,0,0,0,1.17,3.64L200,18.38l4.47-11.92a19.13,19.13,0,0,0,.79-2.5A8.21,8.21,0,0,0,205.47,2c0-.1,0-.21,0-.35s0-.3,0-.5h6.73l0,1.41a3,3,0,0,0-2,.58,2.11,2.11,0,0,0-.63,1.67,10.16,10.16,0,0,0,.05,1c0,.38.1.77.16,1.18l2,13.18a5.36,5.36,0,0,0,1,2.77,3.19,3.19,0,0,0,2.12.89l0,1.51h-10V23.89a4.35,4.35,0,0,0,2.36-.83,2.51,2.51,0,0,0,.68-1.94c0-.17,0-.38,0-.64s-.07-.63-.14-1.13L206,7.23,200.39,22a14.18,14.18,0,0,0-.52,1.68,16.26,16.26,0,0,0-.3,1.72H197.8c-.13-.87-.31-1.75-.53-2.63s-.47-1.69-.74-2.44L191.77,7.4l-1.43,8.07c-.18,1-.31,1.89-.4,2.77s-.14,1.65-.14,2.29a3.93,3.93,0,0,0,.56,2.41,3.32,3.32,0,0,0,2.07.95V25.4Z"/><path class="cls-1" d="M86.44,39.52V38.13H96.53v1.39a3.8,3.8,0,0,0-2.37,1,5.37,5.37,0,0,0-.6,3.11V54.3a5.33,5.33,0,0,0,6,6,7.1,7.1,0,0,0,2.85-.56,5.39,5.39,0,0,0,2.11-1.61,4.26,4.26,0,0,0,.82-1.74,18.11,18.11,0,0,0,.24-3.58V44.49c0-2-.24-3.34-.73-4a3.54,3.54,0,0,0-2.76-1V38.13h8.52v1.39A3.74,3.74,0,0,0,108,40.73a6.87,6.87,0,0,0-.71,3.76v9.23a12.17,12.17,0,0,1-.37,3.48,6.4,6.4,0,0,1-1.23,2.21,7.74,7.74,0,0,1-3.07,2.21,11,11,0,0,1-4.21.74q-4.41,0-6.56-2T89.72,54V43.62a5.11,5.11,0,0,0-.66-3.13A3.9,3.9,0,0,0,86.44,39.52Zm8.35-6.27a1.66,1.66,0,0,1,1.64-1.62,1.64,1.64,0,0,1,1.17.48,1.54,1.54,0,0,1,.5,1.14,1.6,1.6,0,0,1-.48,1.18,1.64,1.64,0,0,1-1.19.48,1.59,1.59,0,0,1-1.17-.47A1.64,1.64,0,0,1,94.79,33.25Zm5.85,0a1.5,1.5,0,0,1,.5-1.14,1.62,1.62,0,0,1,1.17-.48A1.66,1.66,0,0,1,104,33.25a1.64,1.64,0,0,1-.47,1.19,1.59,1.59,0,0,1-1.17.47,1.64,1.64,0,0,1-1.19-.48A1.6,1.6,0,0,1,100.64,33.25Z"/><path class="cls-1" d="M134.15,62.38h-1.83c-.52-.7-2.49-3.45-3.55-4.75L118.13,44.35v12.1a6.61,6.61,0,0,0,.67,3.46,2.55,2.55,0,0,0,2.29,1h.34l.23,0v1.48h-8.79V60.88h.39a2.79,2.79,0,0,0,2.44-1,6,6,0,0,0,.73-3.4v-14a7.52,7.52,0,0,0-1.84-2,4.17,4.17,0,0,0-2.1-.84V38.15h5.64l14.26,18.06V43.51c0-1.54-.23-2.57-.71-3.07a4.27,4.27,0,0,0-2.81-.9V38.15h8.74v1.39a4.91,4.91,0,0,0-2.74,1.15,4.62,4.62,0,0,0-.72,3Z"/><path class="cls-1" d="M139.89,62.36V60.88a4.63,4.63,0,0,0,2.68-.93,4.19,4.19,0,0,0,.68-2.83V43.37a4.11,4.11,0,0,0-.68-2.8,4.57,4.57,0,0,0-2.68-.92V38.16h10.6v1.49a4.55,4.55,0,0,0-2.69.92,4.19,4.19,0,0,0-.66,2.8V57.12a4.2,4.2,0,0,0,.67,2.83,4.63,4.63,0,0,0,2.68.93v1.48Zm3.66-29.09A1.58,1.58,0,0,1,144,32.1a1.65,1.65,0,0,1,2.35,0,1.59,1.59,0,0,1,.5,1.17,1.57,1.57,0,0,1-.5,1.16,1.65,1.65,0,0,1-2.35,0A1.56,1.56,0,0,1,143.55,33.27Z"/><path class="cls-1" d="M164.87,62.36h-1.56l-7.44-18.52,0-.08q-1.67-4.21-3.39-4.22h-.17V38.15h9v1.39h-.17a3,3,0,0,0-1.61.35,1.16,1.16,0,0,0-.54,1,2.06,2.06,0,0,0,.08.54,6.07,6.07,0,0,0,.23.68l5.85,14.73c.61-1.63,1.44-3.79,2.47-6.48q3.1-8,3.11-9.17a1.38,1.38,0,0,0-.75-1.23,4,4,0,0,0-2.09-.46h-.13V38.15h7.71v1.39h-.07c-1.29,0-2.56,1.7-3.81,5.08l-.08.23Q170,48.84,167.6,55Z"/><path class="cls-1" d="M177.07,62.36V60.88a4.63,4.63,0,0,0,2.68-.93,4.19,4.19,0,0,0,.68-2.83v-14a4.18,4.18,0,0,0-.68-2.82,4.56,4.56,0,0,0-2.68-.93V38.15h19.22l.17,5.08H195a4.43,4.43,0,0,0-2.11-2.86,11.07,11.07,0,0,0-5-.83h-2.46a1.72,1.72,0,0,0-1,.19,1.52,1.52,0,0,0-.2,1v7.95H187c2.08,0,3.47-.23,4.16-.69a2.88,2.88,0,0,0,1.07-2.52h1.47V53.5l-1.47,0a3,3,0,0,0-1.1-2.57c-.7-.47-2.08-.7-4.13-.7h-2.74v7.21a3.34,3.34,0,0,0,.95,2.74,5.86,5.86,0,0,0,3.49.75A7.61,7.61,0,0,0,193,59.75a8.93,8.93,0,0,0,3-3.62l1.52.38L196,62.36Z"/><path class="cls-1" d="M199.34,62.36V60.88a3.81,3.81,0,0,0,2.45-1,4.4,4.4,0,0,0,.69-2.84V43.68c0-1.77-.21-2.86-.62-3.29a4.36,4.36,0,0,0-2.52-.85V38.15h8.48c3.38,0,5.89.5,7.56,1.5a5,5,0,0,1,2.49,4.54,5.38,5.38,0,0,1-1.49,3.92,8.75,8.75,0,0,1-4.46,2.2c.47.38.92.78,1.35,1.19a16.22,16.22,0,0,1,1.15,1.22l5.09,6,.1.11c1.18,1.39,2.08,2.09,2.7,2.09h.07v1.48h-4.51L210,53.05a11.78,11.78,0,0,0-2-2,2.61,2.61,0,0,0-1.42-.42l-.16,0-.17,0v6.25a5.05,5.05,0,0,0,.62,3,3.49,3.49,0,0,0,2.39.94v1.48Zm7-13.34c.27,0,.54.07.82.09l1.05,0a6,6,0,0,0,4.1-1.31,4.56,4.56,0,0,0,1.48-3.56,4.2,4.2,0,0,0-1.54-3.39,6.15,6.15,0,0,0-4.07-1.29,3.14,3.14,0,0,0-1.48.22c-.24.15-.36.5-.36,1.07V49Z"/><path class="cls-1" d="M224.35,60.3V54.81l1.32.16a9.11,9.11,0,0,0,2.21,4.34,5.06,5.06,0,0,0,3.68,1.47,3.91,3.91,0,0,0,2.82-1.07,3.61,3.61,0,0,0,1.11-2.7,4.05,4.05,0,0,0-.86-2.53,17,17,0,0,0-4-3.12,19.38,19.38,0,0,1-4.9-3.86,5.42,5.42,0,0,1-1-3.29,5.63,5.63,0,0,1,1.82-4.39,6.91,6.91,0,0,1,4.84-1.67,11.37,11.37,0,0,1,3.06.46A20.47,20.47,0,0,1,237.89,40v4.77h-1.43a6.84,6.84,0,0,0-1.68-3.85,4.61,4.61,0,0,0-3.43-1.3,4.23,4.23,0,0,0-2.78.89,2.89,2.89,0,0,0-1.08,2.32,3.79,3.79,0,0,0,.29,1.48,3.59,3.59,0,0,0,.88,1.22,30.41,30.41,0,0,0,3.76,2.63l2.35,1.51a11.5,11.5,0,0,1,3.17,2.83,5.25,5.25,0,0,1,.94,3.06,6.29,6.29,0,0,1-2.1,4.94,8,8,0,0,1-5.57,1.87,12.29,12.29,0,0,1-3.55-.51A12.62,12.62,0,0,1,224.35,60.3Z"/><path class="cls-1" d="M241.83,62.37V60.88a4.54,4.54,0,0,0,2.68-.92,4.23,4.23,0,0,0,.68-2.83V43.36a4.11,4.11,0,0,0-.68-2.8,4.54,4.54,0,0,0-2.68-.92V38.15h10.6v1.49a4.57,4.57,0,0,0-2.69.92,4.19,4.19,0,0,0-.66,2.8V57.13a4.23,4.23,0,0,0,.67,2.83,4.59,4.59,0,0,0,2.68.92v1.49Zm3.66-29.1A1.58,1.58,0,0,1,246,32.1a1.65,1.65,0,0,1,2.35,0,1.59,1.59,0,0,1,.5,1.17,1.57,1.57,0,0,1-.5,1.16,1.65,1.65,0,0,1-2.35,0A1.56,1.56,0,0,1,245.49,33.27Z"/><path class="cls-1" d="M260.45,62.36V60.88a3.73,3.73,0,0,0,2.62-.81,4.41,4.41,0,0,0,.72-3V39.68h-2.23a6.29,6.29,0,0,0-3.65.81,7,7,0,0,0-2,3h-1.5l.68-5.39h21.34l.89,5.39-1.54,0a8.69,8.69,0,0,0-2.42-3,5.71,5.71,0,0,0-3.19-.8h-2.42V57.12a4.46,4.46,0,0,0,.67,2.92,3.76,3.76,0,0,0,2.53.84v1.48Z"/><path class="cls-1" d="M279.31,62.36V60.88A4.6,4.6,0,0,0,282,60a4.19,4.19,0,0,0,.68-2.83v-14a4.18,4.18,0,0,0-.68-2.82,4.53,4.53,0,0,0-2.68-.93V38.15h19.22l.17,5.08h-1.44a4.43,4.43,0,0,0-2.11-2.86,11.07,11.07,0,0,0-5-.83h-2.45a1.74,1.74,0,0,0-1,.19,1.52,1.52,0,0,0-.2,1v7.95h2.74c2.08,0,3.47-.23,4.16-.69a2.88,2.88,0,0,0,1.07-2.52H296V53.5l-1.47,0a3,3,0,0,0-1.1-2.57c-.7-.47-2.08-.7-4.13-.7h-2.74v7.21a3.34,3.34,0,0,0,1,2.74,5.88,5.88,0,0,0,3.5.75,7.58,7.58,0,0,0,4.26-1.16,8.85,8.85,0,0,0,3-3.62l1.52.38-1.47,5.85Z"/><path class="cls-1" d="M302.88,60.3V54.81l1.32.16a9,9,0,0,0,2.22,4.34,5,5,0,0,0,3.68,1.47,3.9,3.9,0,0,0,2.81-1.07A3.61,3.61,0,0,0,314,57a4,4,0,0,0-.86-2.53,16.81,16.81,0,0,0-4-3.12,19.58,19.58,0,0,1-4.9-3.86,5.42,5.42,0,0,1-1-3.29,5.63,5.63,0,0,1,1.83-4.39,6.9,6.9,0,0,1,4.83-1.67,11.49,11.49,0,0,1,3.07.46A21.14,21.14,0,0,1,316.43,40v4.77H315a6.71,6.71,0,0,0-1.68-3.85,4.6,4.6,0,0,0-3.43-1.3,4.25,4.25,0,0,0-2.78.89A2.89,2.89,0,0,0,306,42.83a3.63,3.63,0,0,0,.3,1.48,3.43,3.43,0,0,0,.87,1.22A31.25,31.25,0,0,0,311,48.16l2.35,1.51a11.42,11.42,0,0,1,3.18,2.83,5.31,5.31,0,0,1,.93,3.06,6.32,6.32,0,0,1-2.09,4.94,8.05,8.05,0,0,1-5.57,1.87,12.36,12.36,0,0,1-3.56-.51A12.94,12.94,0,0,1,302.88,60.3Z"/><path class="cls-1" d="M320.36,62.36V60.88A4.6,4.6,0,0,0,323,60a4.19,4.19,0,0,0,.68-2.83V43.37a4.13,4.13,0,0,0-.68-2.8,4.54,4.54,0,0,0-2.68-.92V38.16H331v1.49a4.52,4.52,0,0,0-2.69.92,4.14,4.14,0,0,0-.67,2.8V57.12a4.19,4.19,0,0,0,.68,2.83,4.6,4.6,0,0,0,2.68.93v1.48ZM324,33.27a1.62,1.62,0,0,1,.49-1.17,1.67,1.67,0,0,1,2.36,0,1.58,1.58,0,0,1,.49,1.17,1.56,1.56,0,0,1-.49,1.16A1.67,1.67,0,0,1,324,33.27Z"/></svg>