<svg id="Layer_1" data-name="Layer 1" xmlns="http://www.w3.org/2000/svg" viewBox="0 0 344.12 87.34"><defs><style>.cls-1{fill:#fff;}.cls-2{fill:#e30613;}</style></defs><title>footer-logo</title><path class="cls-1" d="M94.5,25.44V23.91a3.42,3.42,0,0,0,1.9-1A9.75,9.75,0,0,0,98,19.84l6.13-17,.07-.15a3,3,0,0,0,.26-1,1.14,1.14,0,0,0-.09-.46,2,2,0,0,0-.27-.44h3.76L115,20.2A8.48,8.48,0,0,0,116.4,23a2.87,2.87,0,0,0,1.82,1v1.53h-9.64V23.91a4.74,4.74,0,0,0,2-.55,1.36,1.36,0,0,0,.54-1.2,4.86,4.86,0,0,0-.1-.92,5.85,5.85,0,0,0-.27-1l-1.7-4.84h-7.84L100,19.6a7.79,7.79,0,0,0-.22,1,5.56,5.56,0,0,0-.08.87,2.08,2.08,0,0,0,.6,1.6,4.54,4.54,0,0,0,2.07.87v1.53Zm7.41-11.91h6.56l-3.22-9.25Z" transform="translate(0 -0.25)"/><path class="cls-1" d="M124.35,25.44V23.91a3.85,3.85,0,0,0,2.73-.83,4.52,4.52,0,0,0,.74-3V2.39h-2.3a6.55,6.55,0,0,0-3.79.84,7.1,7.1,0,0,0-2.06,3.13H118.1l.71-5.53h22.13l.92,5.53-1.59,0a8.86,8.86,0,0,0-2.51-3.11,5.87,5.87,0,0,0-3.31-.83h-2.51V20.06a4.57,4.57,0,0,0,.69,3,3.93,3.93,0,0,0,2.63.86v1.53Z" transform="translate(0 -0.25)"/><path class="cls-1" d="M143.52,25.44V23.91a4.76,4.76,0,0,0,2.78-1,4.28,4.28,0,0,0,.7-2.9V6.18a4.21,4.21,0,0,0-.7-2.88,4.81,4.81,0,0,0-2.78-.94V.83h11V2.36a4.79,4.79,0,0,0-2.79.94A4.25,4.25,0,0,0,151,6.18V20.06a4.28,4.28,0,0,0,.7,2.9,4.76,4.76,0,0,0,2.78,1v1.53Z" transform="translate(0 -0.25)"/><path class="cls-1" d="M157.36,25.44V23.91A3.9,3.9,0,0,0,160,23.1a3.45,3.45,0,0,0,.8-2.56V5.28a2.9,2.9,0,0,0-.8-2.3,4.27,4.27,0,0,0-2.7-.72V.83h11.13V2.26A4,4,0,0,0,165.8,3a2.9,2.9,0,0,0-.89,2.32V20q0,2.43,1,3.23t4,.81a10.33,10.33,0,0,0,5.31-1.23A8,8,0,0,0,178.44,19l1.59.42-1.52,6Z" transform="translate(0 -0.25)"/><path class="cls-1" d="M181.72,25.44V23.91a4.76,4.76,0,0,0,2.78-1,4.28,4.28,0,0,0,.7-2.9V6.18a4.21,4.21,0,0,0-.7-2.88,4.81,4.81,0,0,0-2.78-.94V.83h11V2.36a4.79,4.79,0,0,0-2.79.94,4.26,4.26,0,0,0-.69,2.88V20.06a4.27,4.27,0,0,0,.7,2.9,4.75,4.75,0,0,0,2.78,1v1.53Z" transform="translate(0 -0.25)"/><path class="cls-1" d="M194.45,25.44l0-1.53a3.1,3.1,0,0,0,2.41-1.32,10.51,10.51,0,0,0,1.36-4.11l2.16-12.27a1.86,1.86,0,0,0,0-.19,9.44,9.44,0,0,0,.1-1.09,2.71,2.71,0,0,0-.65-2A2.73,2.73,0,0,0,198,2.26V.83h6.63a10.91,10.91,0,0,0,.3,2.47A31,31,0,0,0,206.12,7l4.29,11.32,4.64-12.1a20.06,20.06,0,0,0,.82-2.54,8.67,8.67,0,0,0,.25-2q0-.15,0-.36c0-.14,0-.31-.05-.51h7l0,1.43a3.2,3.2,0,0,0-2,.59,2.1,2.1,0,0,0-.66,1.7c0,.32,0,.67.06,1.06s.1.79.17,1.2l2,13.39a5.37,5.37,0,0,0,1,2.81,3.38,3.38,0,0,0,2.2.91l0,1.53H215.49V23.91a4.6,4.6,0,0,0,2.45-.85,2.52,2.52,0,0,0,.7-2q0-.25,0-.64t-.14-1.15L216.65,7l-5.78,15a12.46,12.46,0,0,0-.54,1.7,14.8,14.8,0,0,0-.31,1.75h-1.84q-.21-1.32-.55-2.67t-.76-2.48L201.93,7.16l-1.49,8.2q-.28,1.48-.42,2.82a23.22,23.22,0,0,0-.14,2.33,3.89,3.89,0,0,0,.58,2.44,3.5,3.5,0,0,0,2.14,1v1.53Z" transform="translate(0 -0.25)"/><path class="cls-1" d="M94.5,41.06V39.63H105v1.43a3.92,3.92,0,0,0-2.46,1,5.45,5.45,0,0,0-.62,3.19V56.45a6.22,6.22,0,0,0,1.57,4.6,6.29,6.29,0,0,0,4.63,1.56,7.38,7.38,0,0,0,3-.58,5.53,5.53,0,0,0,2.18-1.65,4.3,4.3,0,0,0,.86-1.79,18.28,18.28,0,0,0,.25-3.67V46.17q0-3.12-.76-4.07a3.72,3.72,0,0,0-2.86-1V39.63h8.83v1.43a3.88,3.88,0,0,0-2.67,1.25q-.74,1-.74,3.86v9.69a12.59,12.59,0,0,1-.38,3.57,6.65,6.65,0,0,1-1.28,2.27A8,8,0,0,1,111.28,64a11.63,11.63,0,0,1-4.37.76q-4.57,0-6.8-2.11t-2.23-6.44V45.27a5.23,5.23,0,0,0-.68-3.22A4.12,4.12,0,0,0,94.5,41.06Zm8.66-6.43a1.59,1.59,0,0,1,.5-1.17,1.65,1.65,0,0,1,1.2-.49,1.71,1.71,0,0,1,1.21.49,1.56,1.56,0,0,1,.52,1.17,1.62,1.62,0,0,1-.5,1.2,1.69,1.69,0,0,1-1.23.49,1.66,1.66,0,0,1-1.7-1.7Zm6.06,0a1.56,1.56,0,0,1,.52-1.17,1.7,1.7,0,0,1,1.21-.49,1.65,1.65,0,0,1,1.2.49,1.59,1.59,0,0,1,.5,1.17,1.65,1.65,0,0,1-1.7,1.7,1.68,1.68,0,0,1-1.23-.49A1.62,1.62,0,0,1,109.21,34.63Z" transform="translate(0 -0.25)"/><path class="cls-1" d="M121.54,64.24V62.71h.4a2.91,2.91,0,0,0,2.53-1.05,6.12,6.12,0,0,0,.76-3.5V44a7.77,7.77,0,0,0-1.9-2.1,4.33,4.33,0,0,0-2.18-.86V39.63H127l14.79,18.53v-13q0-2.38-.74-3.16a4.45,4.45,0,0,0-2.91-.92V39.63h9.05v1.43a5.12,5.12,0,0,0-2.84,1.18,4.7,4.7,0,0,0-.74,3.1v15q0,1.31.07,2.39t.21,2.05h-2q-.62-1-1.43-2T138,59.62L127,46V58.16a6.68,6.68,0,0,0,.69,3.55,2.65,2.65,0,0,0,2.37,1h.36l.23,0v1.53Z" transform="translate(0 -0.25)"/><path class="cls-1" d="M149.2,64.24V62.71a4.76,4.76,0,0,0,2.78-1,4.28,4.28,0,0,0,.7-2.9V45a4.21,4.21,0,0,0-.7-2.88,4.81,4.81,0,0,0-2.78-.94V39.63h11v1.53a4.78,4.78,0,0,0-2.79.94,4.25,4.25,0,0,0-.69,2.88V58.86a4.27,4.27,0,0,0,.7,2.9,4.76,4.76,0,0,0,2.78,1v1.53ZM153,34.63a1.61,1.61,0,0,1,.51-1.2,1.74,1.74,0,0,1,2.44,0,1.66,1.66,0,0,1,0,2.39,1.74,1.74,0,0,1-2.44,0A1.62,1.62,0,0,1,153,34.63Z" transform="translate(0 -0.25)"/><path class="cls-1" d="M173.13,64.73l-7.72-19.26,0-.08q-1.73-4.33-3.51-4.33h-.17V39.63H171v1.43h-.17a3.15,3.15,0,0,0-1.67.36,1.18,1.18,0,0,0-.56,1.07,2.26,2.26,0,0,0,.09.55,5.36,5.36,0,0,0,.24.7L175,58.86q1-2.51,2.56-6.65,3.22-8.2,3.22-9.42a1.42,1.42,0,0,0-.78-1.26,4.22,4.22,0,0,0-2.16-.47h-.14V39.63h8v1.43h-.07q-2,0-3.95,5.21l-.09.24q-1.51,4.09-4,10.38a76.54,76.54,0,0,0-2.84,7.85Z" transform="translate(0 -0.25)"/><path class="cls-1" d="M187,64.24V62.71a4.75,4.75,0,0,0,2.78-1,4.27,4.27,0,0,0,.7-2.9V44.77a4.27,4.27,0,0,0-.7-2.9,4.74,4.74,0,0,0-2.78-1V39.63H207l.17,5.21h-1.49a4.58,4.58,0,0,0-2.19-2.94,11.54,11.54,0,0,0-5.15-.85h-2.54a1.73,1.73,0,0,0-1,.19,1.51,1.51,0,0,0-.21,1v8.16h2.84q3.24,0,4.31-.71a2.94,2.94,0,0,0,1.11-2.58l1.53,0v8.28l-1.53,0a3,3,0,0,0-1.14-2.64q-1.09-.72-4.28-.72h-2.84v7.16a3.4,3.4,0,0,0,1,2.81,6.14,6.14,0,0,0,3.63.77,7.94,7.94,0,0,0,4.42-1.19,9.17,9.17,0,0,0,3.09-3.72l1.58.39-1.52,6Z" transform="translate(0 -0.25)"/><path class="cls-1" d="M209.77,64.24V62.71a3.94,3.94,0,0,0,2.54-1,4.49,4.49,0,0,0,.71-2.91V45.3q0-2.71-.64-3.37a4.47,4.47,0,0,0-2.61-.87V39.63h8.79q5.25,0,7.83,1.54A5.06,5.06,0,0,1,229,45.83a5.5,5.5,0,0,1-1.55,4,9.07,9.07,0,0,1-4.63,2.26q.74.59,1.4,1.22t1.2,1.26l5.07,5.87.1.12q1.83,2.14,2.8,2.14h.07v1.53h-4.68l-7.91-9.32a11.53,11.53,0,0,0-2.05-2,2.7,2.7,0,0,0-1.46-.43l-.17,0-.17,0v6.18a5.15,5.15,0,0,0,.64,3.08,3.63,3.63,0,0,0,2.48,1v1.53ZM217,50.78a8.43,8.43,0,0,0,.85.09c.29,0,.65,0,1.09,0a6.22,6.22,0,0,0,4.24-1.35,4.61,4.61,0,0,0,1.54-3.66,4.3,4.3,0,0,0-1.6-3.48,6.41,6.41,0,0,0-4.22-1.32,3.34,3.34,0,0,0-1.54.23q-.36.23-.36,1.09v8.37Z" transform="translate(0 -0.25)"/><path class="cls-1" d="M235.35,62.61v-5.8l1.37.17A9.6,9.6,0,0,0,239,61.57a5.18,5.18,0,0,0,3.82,1.55A4,4,0,0,0,245.75,62a3.84,3.84,0,0,0,1.15-2.85,4.32,4.32,0,0,0-.89-2.67,18.13,18.13,0,0,0-4.18-3.3q-4-2.6-5.08-4.07a5.86,5.86,0,0,1-1-3.48,6,6,0,0,1,1.9-4.64,7.08,7.08,0,0,1,5-1.76,11.45,11.45,0,0,1,3.18.48,20.91,20.91,0,0,1,3.61,1.47v5H247.9a7.22,7.22,0,0,0-1.74-4.06,4.74,4.74,0,0,0-3.56-1.38,4.29,4.29,0,0,0-2.88,1,3.06,3.06,0,0,0-1.12,2.44,4,4,0,0,0,.3,1.57,3.69,3.69,0,0,0,.91,1.28,31.22,31.22,0,0,0,3.89,2.78l2.44,1.59a12.11,12.11,0,0,1,3.29,3,5.65,5.65,0,0,1,1,3.23,6.72,6.72,0,0,1-2.17,5.22,8.24,8.24,0,0,1-5.77,2,12.47,12.47,0,0,1-3.69-.54A13.19,13.19,0,0,1,235.35,62.61Z" transform="translate(0 -0.25)"/><path class="cls-1" d="M253.12,64.24V62.71a4.76,4.76,0,0,0,2.78-1,4.28,4.28,0,0,0,.7-2.9V45a4.21,4.21,0,0,0-.7-2.88,4.81,4.81,0,0,0-2.78-.94V39.63h11v1.53a4.78,4.78,0,0,0-2.79.94,4.24,4.24,0,0,0-.69,2.88V58.86a4.28,4.28,0,0,0,.7,2.9,4.76,4.76,0,0,0,2.78,1v1.53Zm3.79-29.61a1.62,1.62,0,0,1,.51-1.2,1.74,1.74,0,0,1,2.44,0,1.66,1.66,0,0,1,0,2.39,1.74,1.74,0,0,1-2.44,0A1.62,1.62,0,0,1,256.91,34.63Z" transform="translate(0 -0.25)"/><path class="cls-1" d="M272.06,64.24V62.71a3.85,3.85,0,0,0,2.73-.83,4.52,4.52,0,0,0,.74-3V41.19h-2.3a6.56,6.56,0,0,0-3.79.84,7.11,7.11,0,0,0-2.06,3.13h-1.56l.71-5.53h22.13l.92,5.53-1.59,0A8.86,8.86,0,0,0,285.46,42a5.88,5.88,0,0,0-3.31-.83h-2.51V58.86a4.58,4.58,0,0,0,.69,3,3.93,3.93,0,0,0,2.63.86v1.53Z" transform="translate(0 -0.25)"/><path class="cls-1" d="M291.27,64.24V62.71a4.76,4.76,0,0,0,2.78-1,4.28,4.28,0,0,0,.7-2.9V44.77a4.28,4.28,0,0,0-.7-2.9,4.76,4.76,0,0,0-2.78-1V39.63h19.93l.17,5.21h-1.49a4.58,4.58,0,0,0-2.19-2.94,11.54,11.54,0,0,0-5.15-.85H300a1.73,1.73,0,0,0-1,.19,1.5,1.5,0,0,0-.21,1v8.16h2.84q3.24,0,4.31-.71A2.94,2.94,0,0,0,307,47.12l1.52,0v8.28l-1.52,0a3,3,0,0,0-1.14-2.64q-1.09-.72-4.28-.72h-2.84v7.16a3.41,3.41,0,0,0,1,2.81,6.14,6.14,0,0,0,3.63.77,7.93,7.93,0,0,0,4.42-1.19,9.15,9.15,0,0,0,3.09-3.72l1.58.39-1.52,6Z" transform="translate(0 -0.25)"/><path class="cls-1" d="M315.35,62.61v-5.8l1.37.17A9.6,9.6,0,0,0,319,61.57a5.18,5.18,0,0,0,3.82,1.55A4,4,0,0,0,325.75,62a3.84,3.84,0,0,0,1.15-2.85,4.32,4.32,0,0,0-.89-2.67,18.12,18.12,0,0,0-4.18-3.3q-4-2.6-5.08-4.07a5.85,5.85,0,0,1-1-3.48A6,6,0,0,1,317.6,41a7.09,7.09,0,0,1,5-1.76,11.43,11.43,0,0,1,3.18.48,20.87,20.87,0,0,1,3.61,1.47v5h-1.49a7.21,7.21,0,0,0-1.74-4.06,4.73,4.73,0,0,0-3.56-1.38,4.29,4.29,0,0,0-2.88,1,3.06,3.06,0,0,0-1.12,2.44,4,4,0,0,0,.3,1.57,3.69,3.69,0,0,0,.91,1.28,31.22,31.22,0,0,0,3.89,2.78l2.44,1.59a12.06,12.06,0,0,1,3.29,3,5.64,5.64,0,0,1,1,3.23,6.72,6.72,0,0,1-2.17,5.22,8.25,8.25,0,0,1-5.77,2,12.46,12.46,0,0,1-3.69-.54A13.19,13.19,0,0,1,315.35,62.61Z" transform="translate(0 -0.25)"/><path class="cls-1" d="M333.12,64.24V62.71a4.75,4.75,0,0,0,2.78-1,4.27,4.27,0,0,0,.7-2.9V45a4.2,4.2,0,0,0-.7-2.88,4.8,4.8,0,0,0-2.78-.94V39.63h11v1.53a4.79,4.79,0,0,0-2.79.94,4.25,4.25,0,0,0-.69,2.88V58.86a4.27,4.27,0,0,0,.7,2.9,4.75,4.75,0,0,0,2.78,1v1.53Zm3.79-29.61a1.62,1.62,0,0,1,.51-1.2,1.74,1.74,0,0,1,2.44,0,1.65,1.65,0,0,1,0,2.39,1.74,1.74,0,0,1-2.44,0A1.62,1.62,0,0,1,336.91,34.63Z" transform="translate(0 -0.25)"/><path class="cls-1" d="M3.43,85.48q0,.77.24,1a2,2,0,0,0,1.1.19h.17v.78H0v-.78H.13a1.92,1.92,0,0,0,1.08-.19q.24-.2.24-1V79.63a.47.47,0,0,0-.15-.4,1.1,1.1,0,0,0-.6-.11H0V78.5q.48-.05,1.25-.22t2.17-.54Z" transform="translate(0 -0.25)"/><path class="cls-1" d="M24.83,87.59l-.33-.46a7.37,7.37,0,0,0,2.25-1.55,4.39,4.39,0,0,0,1.08-2,6,6,0,0,1-.7.23,2.44,2.44,0,0,1-.57.08,2.21,2.21,0,0,1-1.75-.77,3,3,0,0,1-.67-2A3.25,3.25,0,0,1,25,78.72a3,3,0,0,1,2.23-.93,2.63,2.63,0,0,1,2.17,1.07,4.44,4.44,0,0,1,.83,2.8,5.72,5.72,0,0,1-.46,2.25,6.22,6.22,0,0,1-1.31,1.95,5.87,5.87,0,0,1-1.66,1.21A5.94,5.94,0,0,1,24.83,87.59Zm2.37-4.75a.9.9,0,0,0,.82-.56,3.58,3.58,0,0,0,.29-1.6A3,3,0,0,0,28,79.21a.9.9,0,0,0-.82-.51.86.86,0,0,0-.8.52,3.44,3.44,0,0,0-.27,1.54,3.48,3.48,0,0,0,.27,1.56A.86.86,0,0,0,27.19,82.84Z" transform="translate(0 -0.25)"/><path class="cls-1" d="M49.67,87.59l-.33-.46a7.37,7.37,0,0,0,2.25-1.55,4.37,4.37,0,0,0,1.08-2,6,6,0,0,1-.7.23,2.46,2.46,0,0,1-.57.08,2.21,2.21,0,0,1-1.76-.77A3,3,0,0,1,49,81a3.25,3.25,0,0,1,.89-2.33,3,3,0,0,1,2.23-.93,2.62,2.62,0,0,1,2.17,1.07,4.43,4.43,0,0,1,.83,2.8,5.69,5.69,0,0,1-.46,2.25,6.22,6.22,0,0,1-1.31,1.95,5.69,5.69,0,0,1-3.65,1.74ZM52,82.84a.9.9,0,0,0,.82-.56,3.56,3.56,0,0,0,.29-1.6,3,3,0,0,0-.29-1.47A.9.9,0,0,0,52,78.7a.86.86,0,0,0-.8.52,4.56,4.56,0,0,0,0,3.1A.86.86,0,0,0,52,82.84Z" transform="translate(0 -0.25)"/><path class="cls-1" d="M79.18,77.78l.33.45a7.42,7.42,0,0,0-2.25,1.56,4.43,4.43,0,0,0-1.08,2,5.51,5.51,0,0,1,.72-.25,2.32,2.32,0,0,1,.55-.08,2.21,2.21,0,0,1,1.76.78,3,3,0,0,1,.67,2A3.26,3.26,0,0,1,79,86.65a2.94,2.94,0,0,1-2.23.94,2.62,2.62,0,0,1-2.17-1.08,4.48,4.48,0,0,1-.83-2.81,5.64,5.64,0,0,1,.46-2.23,6.26,6.26,0,0,1,1.31-1.94,5.77,5.77,0,0,1,1.65-1.2A6.1,6.1,0,0,1,79.18,77.78Zm-2.42,8.89a.91.91,0,0,0,.82-.57,3.54,3.54,0,0,0,.3-1.61A3,3,0,0,0,77.59,83a.91.91,0,0,0-.83-.51A.84.84,0,0,0,76,83a3.77,3.77,0,0,0-.26,1.59A3.37,3.37,0,0,0,76,86.15.85.85,0,0,0,76.76,86.67Z" transform="translate(0 -0.25)"/><path class="cls-1" d="M53.16,1.27V5.86A32.14,32.14,0,0,0,34.8.25V4a28.38,28.38,0,0,1,22,10.22V4.88H76.31V66.49H56.78V58.08a28.33,28.33,0,0,1-22,10.3v3.73a31.94,31.94,0,0,0,18.37-5.72v3.72H79.92V1.27Z" transform="translate(0 -0.25)"/><path class="cls-1" d="M34.77,0" transform="translate(0 -0.25)"/><path class="cls-1" d="M34.77,2.62" transform="translate(0 -0.25)"/><path class="cls-1" d="M34.8,50.35h0Z" transform="translate(0 -0.25)"/><path class="cls-1" d="M34.8,22h0Z" transform="translate(0 -0.25)"/><path class="cls-1" d="M34.8,29.74H47.93a14.13,14.13,0,0,0-1.74-2.58H34.8Z" transform="translate(0 -0.25)"/><path class="cls-1" d="M34.8,34.89H49.49a13.63,13.63,0,0,0-.5-2.57H34.8Z" transform="translate(0 -0.25)"/><path class="cls-1" d="M34.8,40H49a13.65,13.65,0,0,0,.5-2.58H34.8Z" transform="translate(0 -0.25)"/><path class="cls-1" d="M34.8,45.2H46.19a14.07,14.07,0,0,0,1.74-2.58H34.8Z" transform="translate(0 -0.25)"/><path class="cls-1" d="M34.8,50.35h.12a15.1,15.1,0,0,0,8.36-2.58H34.8Z" transform="translate(0 -0.25)"/><path class="cls-1" d="M34.8,22v2.57h8.47A15.09,15.09,0,0,0,34.95,22Z" transform="translate(0 -0.25)"/><path class="cls-1" d="M1.19,27.16q-.35,1.27-.6,2.58H21.68a14.09,14.09,0,0,1,1.74-2.58Z" transform="translate(0 -0.25)"/><path class="cls-1" d="M.2,32.32C.1,33.17,0,34,0,34.89H20.12a13.56,13.56,0,0,1,.5-2.57Z" transform="translate(0 -0.25)"/><path class="cls-1" d="M0,37.47c0,.86.11,1.72.21,2.58H20.62a13.58,13.58,0,0,1-.5-2.58Z" transform="translate(0 -0.25)"/><path class="cls-1" d="M.64,42.62c.17.87.38,1.73.62,2.58H23.42a14,14,0,0,1-1.74-2.58Z" transform="translate(0 -0.25)"/><path class="cls-1" d="M2.08,47.77c.32.87.68,1.73,1.06,2.58H34.69a15.09,15.09,0,0,1-8.36-2.58Z" transform="translate(0 -0.25)"/><path class="cls-1" d="M6,55.5H34.8V52.92H4.45C4.94,53.8,5.46,54.66,6,55.5Z" transform="translate(0 -0.25)"/><path class="cls-1" d="M10.22,60.65H34.8V58.07H7.92Q9,59.42,10.22,60.65Z" transform="translate(0 -0.25)"/><path class="cls-1" d="M16.56,65.8H34.8V63.23H13A34.57,34.57,0,0,0,16.56,65.8Z" transform="translate(0 -0.25)"/><path class="cls-1" d="M3,22q-.57,1.26-1,2.57H26.33A15.1,15.1,0,0,1,34.66,22Z" transform="translate(0 -0.25)"/><path class="cls-1" d="M4.33,19.44H34.8V16.86H5.89Q5.06,18.11,4.33,19.44Z" transform="translate(0 -0.25)"/><path class="cls-1" d="M7.78,14.28h27V11.71H10.08Q8.87,12.94,7.78,14.28Z" transform="translate(0 -0.25)"/><path class="cls-1" d="M12.89,9.13H34.8V6.56H16.44A34.67,34.67,0,0,0,12.89,9.13Z" transform="translate(0 -0.25)"/><path class="cls-1" d="M34.88,68.38H21.48A32.11,32.11,0,0,0,34,71h.83Z" transform="translate(0 -0.25)"/><path class="cls-1" d="M34.88,1.4H34A32.52,32.52,0,0,0,21.39,4H34.88Z" transform="translate(0 -0.25)"/><path class="cls-2" d="M34.8,50.35c-8.15,0-14.75-6.35-14.75-14.17S26.66,22,34.8,22Z" transform="translate(0 -0.25)"/></svg>